<?xml version="1.0" encoding="UTF-8" standalone="no"?>
<svg width="316px" height="316px" viewBox="0 0 316 316" version="1.1" xmlns="http://www.w3.org/2000/svg" xmlns:xlink="http://www.w3.org/1999/xlink" xmlns:sketch="http://www.bohemiancoding.com/sketch/ns">
    <title>Tuxedo-proto</title>
    <description>Created with Sketch (http://www.bohemiancoding.com/sketch)</description>
    <defs></defs>
    <g id="Page-1" stroke="none" stroke-width="1" fill="none" fill-rule="evenodd" sketch:type="MSPage">
        <g id="Group" sketch:type="MSLayerGroup" transform="translate(-35.000000, -105.000000)">
            <g sketch:type="MSShapeGroup">
                <rect id="Rectangle-1" stroke="#000000" fill="#000000" x="43" y="122" width="300" height="300"></rect>
                <path d="M19.3524232,62.2168851 L12.990054,134.939098 L102.647577,142.783115 L109.009946,70.0609019 L19.3524232,62.2168851 Z" id="Rectangle-2" stroke="#FFFFFF" fill="#FFFFFF" transform="translate(61.000000, 102.500000) rotate(-25.000000) translate(-61.000000, -102.500000) "></path>
                <path d="M277.990054,70.0609019 L284.352423,142.783115 L374.009946,134.939098 L367.647577,62.2168851 L277.990054,70.0609019 Z" id="Rectangle-2-copy" stroke="#FFFFFF" fill="#FFFFFF" transform="translate(326.000000, 102.500000) rotate(25.000000) translate(-326.000000, -102.500000) "></path>
                <ellipse id="Oval-6" stroke="#FFFFFF" fill="#FFFFFF" cx="193.5" cy="167" rx="84.5" ry="167"></ellipse>
                <g transform="translate(184.000000, 146.000000)" stroke="#FFFFFF" fill="#000000">
                    <path d="M10.5,107 C16.2989902,107 21,102.29899 21,96.5 C21,90.7010098 16.2989902,86 10.5,86 C4.70100984,86 0,90.7010098 0,96.5 C0,102.29899 4.70100984,107 10.5,107 Z" id="Oval-2"></path>
                    <path d="M10.5,64 C16.2989902,64 21,59.2989902 21,53.5 C21,47.7010098 16.2989902,43 10.5,43 C4.70100984,43 0,47.7010098 0,53.5 C0,59.2989902 4.70100984,64 10.5,64 Z" id="Oval-2-copy"></path>
                    <path d="M10.5,21 C16.2989902,21 21,16.2989902 21,10.5 C21,4.70100984 16.2989902,0 10.5,0 C4.70100984,0 0,4.70100984 0,10.5 C0,16.2989902 4.70100984,21 10.5,21 Z" id="Oval-2-copy-2"></path>
                    <path d="M10.5,150 C16.2989902,150 21,145.29899 21,139.5 C21,133.70101 16.2989902,129 10.5,129 C4.70100984,129 0,133.70101 0,139.5 C0,145.29899 4.70100984,150 10.5,150 Z" id="Oval-2-copy"></path>
                </g>
                <g id="Triangle-1-+-Triangle-1-copy" transform="translate(149.000000, 111.000000)" stroke="#FFFFFF" fill="#000000">
                    <polygon id="Triangle-1" transform="translate(67.500000, 22.500000) rotate(-90.000000) translate(-67.500000, -22.500000) " points="67.5 0 90 45 45 45 "></polygon>
                    <polygon id="Triangle-1-copy" transform="translate(22.500000, 22.500000) rotate(-270.000000) translate(-22.500000, -22.500000) " points="22.5 0 45 45 0 45 "></polygon>
                </g>
                <g id="Rectangle-4-+-Triangle-3" transform="translate(258.000000, 301.000000)" stroke="#FFFFFF" fill="#FFFFFF">
                    <rect id="Rectangle-4" x="0" y="3" width="73" height="3"></rect>
                    <polygon id="Triangle-3" points="36.5 0 73 3 0 3 "></polygon>
                </g>
            </g>
        </g>
    </g>
</svg>